<svg width="16" height="16" viewBox="0 0 16 16" fill="none" xmlns="http://www.w3.org/2000/svg">
<path fill-rule="evenodd" clip-rule="evenodd" d="M6.39217 7.21568C6.35481 7.23856 6.32233 7.26857 6.29658 7.30401C6.27083 7.33945 6.25232 7.37961 6.2421 7.42221C6.23189 7.46481 6.23017 7.509 6.23704 7.55227C6.24392 7.59553 6.25925 7.63701 6.28217 7.67435C6.5885 8.17368 6.84884 8.66935 7.02217 9.11968C7.05391 9.20221 7.11713 9.26874 7.19793 9.30466C7.27872 9.34057 7.37048 9.34292 7.453 9.31118C7.53553 9.27944 7.60207 9.21622 7.63798 9.13542C7.6739 9.05463 7.67624 8.96287 7.6445 8.88035C7.45184 8.37901 7.16917 7.84535 6.8505 7.32568C6.80431 7.25032 6.73007 7.1964 6.64412 7.17577C6.55816 7.15514 6.46754 7.1695 6.39217 7.21568ZM9.8635 6.89768C9.93482 6.94986 9.98251 7.02822 9.99607 7.11554C10.0096 7.20286 9.98797 7.29199 9.93584 7.36335C9.55017 7.89101 9.2105 8.59668 8.9715 9.13535C8.95373 9.17536 8.92825 9.21147 8.89652 9.24164C8.86479 9.2718 8.82743 9.29542 8.78657 9.31114C8.74572 9.32686 8.70216 9.33439 8.6584 9.33328C8.61463 9.33217 8.57151 9.32245 8.5315 9.30468C8.49149 9.28691 8.45538 9.26143 8.42522 9.2297C8.39505 9.19797 8.37144 9.16061 8.35571 9.11975C8.33999 9.07889 8.33246 9.03534 8.33357 8.99157C8.33468 8.94781 8.3444 8.90469 8.36217 8.86468C8.6035 8.32135 8.96684 7.55935 9.39784 6.97001C9.45002 6.89869 9.52838 6.85101 9.6157 6.83745C9.70302 6.82388 9.79215 6.84555 9.8635 6.89768Z" fill="black"/>
<path fill-rule="evenodd" clip-rule="evenodd" d="M6.39217 7.21568C6.35481 7.23856 6.32233 7.26857 6.29658 7.30401C6.27083 7.33945 6.25232 7.37961 6.2421 7.42221C6.23189 7.46481 6.23017 7.509 6.23704 7.55227C6.24392 7.59553 6.25925 7.63701 6.28217 7.67435C6.5885 8.17368 6.84884 8.66935 7.02217 9.11968C7.05391 9.20221 7.11713 9.26874 7.19793 9.30466C7.27872 9.34057 7.37048 9.34292 7.453 9.31118C7.53553 9.27944 7.60207 9.21622 7.63798 9.13542C7.6739 9.05463 7.67624 8.96287 7.6445 8.88035C7.45184 8.37901 7.16917 7.84535 6.8505 7.32568C6.80431 7.25032 6.73007 7.1964 6.64412 7.17577C6.55816 7.15514 6.46754 7.1695 6.39217 7.21568ZM9.8635 6.89768C9.93482 6.94986 9.98251 7.02822 9.99607 7.11554C10.0096 7.20286 9.98797 7.29199 9.93584 7.36335C9.55017 7.89101 9.2105 8.59668 8.9715 9.13535C8.95373 9.17536 8.92825 9.21147 8.89652 9.24164C8.86479 9.2718 8.82743 9.29542 8.78657 9.31114C8.74572 9.32686 8.70216 9.33439 8.6584 9.33328C8.61463 9.33217 8.57151 9.32245 8.5315 9.30468C8.49149 9.28691 8.45538 9.26143 8.42522 9.2297C8.39505 9.19797 8.37144 9.16061 8.35571 9.11975C8.33999 9.07889 8.33246 9.03534 8.33357 8.99157C8.33468 8.94781 8.3444 8.90469 8.36217 8.86468C8.6035 8.32135 8.96684 7.55935 9.39784 6.97001C9.45002 6.89869 9.52838 6.85101 9.6157 6.83745C9.70302 6.82388 9.79215 6.84555 9.8635 6.89768Z" fill="url(#paint0_linear_2938_2685)"/>
<path fill-rule="evenodd" clip-rule="evenodd" d="M9.08 4.01233C9.86067 3.11967 14.035 2 14.035 2C14.035 2 13.3253 6.465 12.701 7.179C12.236 7.711 10.7543 7.37867 10.0283 7.17433C10.571 6.342 11.2 5.529 11.753 4.88367C11.8094 4.81642 11.837 4.72964 11.8299 4.64215C11.8227 4.55467 11.7813 4.47355 11.7147 4.4164C11.648 4.35925 11.5615 4.33069 11.474 4.33692C11.3864 4.34315 11.3049 4.38366 11.247 4.44967C10.6893 5.10033 10.043 5.933 9.477 6.79867C9.159 6.20667 8.46267 4.71833 9.08 4.01233ZM3.66667 10H2V14H3.66667V13.319C4.00667 13.305 4.50867 13.287 4.68233 13.294C5.278 13.3183 5.72233 13.4603 6.17233 13.604C6.59167 13.7377 7.01533 13.873 7.56967 13.9153C7.709 13.926 7.84467 13.9397 7.97633 13.9527C8.45067 14.0007 8.87167 14.0433 9.21967 13.9153C9.66367 13.752 12.2017 12.5097 12.519 12.1827C12.8363 11.856 12.6777 10.9733 11.694 11.1367C11.2087 11.2173 10.6463 11.4493 10.136 11.6597C9.61233 11.8753 9.14367 12.0687 8.87033 12.052C8.331 12.0193 6.90367 11.758 6.90367 11.758L8.54267 11.778C8.54267 11.778 8.77433 11.79 9.09267 11.5617C9.411 11.3333 9.69533 10.679 9.21933 10.679C8.74333 10.679 8.236 10.5157 8.236 10.5157L6.20533 10.058C6.20533 10.058 5.50733 9.92733 5.222 10.058C4.98667 10.1657 4.006 10.517 3.66667 10.638V10ZM2.95933 3.22333C2.95933 3.22333 6.40433 4.14733 7.04833 4.88367C7.546 5.45267 7.00967 6.63767 6.73967 7.14767C6.38579 6.59196 6.00373 6.0547 5.595 5.538C5.56788 5.50364 5.53426 5.47495 5.49606 5.45358C5.45785 5.43221 5.41582 5.41858 5.37234 5.41346C5.32887 5.40833 5.28481 5.41182 5.24269 5.42373C5.20056 5.43563 5.1612 5.45572 5.12683 5.48283C5.09247 5.50995 5.06379 5.54357 5.04242 5.58178C5.02105 5.61998 5.00741 5.66202 5.00229 5.70549C4.99717 5.74896 5.00066 5.79302 5.01256 5.83515C5.02446 5.87727 5.04455 5.91664 5.07167 5.951C5.46893 6.45325 5.84009 6.97561 6.18367 7.516C5.561 7.68467 4.427 7.917 4.06033 7.49733C3.545 6.908 2.95933 3.223 2.95933 3.223" fill="black"/>
<path fill-rule="evenodd" clip-rule="evenodd" d="M9.08 4.01233C9.86067 3.11967 14.035 2 14.035 2C14.035 2 13.3253 6.465 12.701 7.179C12.236 7.711 10.7543 7.37867 10.0283 7.17433C10.571 6.342 11.2 5.529 11.753 4.88367C11.8094 4.81642 11.837 4.72964 11.8299 4.64215C11.8227 4.55467 11.7813 4.47355 11.7147 4.4164C11.648 4.35925 11.5615 4.33069 11.474 4.33692C11.3864 4.34315 11.3049 4.38366 11.247 4.44967C10.6893 5.10033 10.043 5.933 9.477 6.79867C9.159 6.20667 8.46267 4.71833 9.08 4.01233ZM3.66667 10H2V14H3.66667V13.319C4.00667 13.305 4.50867 13.287 4.68233 13.294C5.278 13.3183 5.72233 13.4603 6.17233 13.604C6.59167 13.7377 7.01533 13.873 7.56967 13.9153C7.709 13.926 7.84467 13.9397 7.97633 13.9527C8.45067 14.0007 8.87167 14.0433 9.21967 13.9153C9.66367 13.752 12.2017 12.5097 12.519 12.1827C12.8363 11.856 12.6777 10.9733 11.694 11.1367C11.2087 11.2173 10.6463 11.4493 10.136 11.6597C9.61233 11.8753 9.14367 12.0687 8.87033 12.052C8.331 12.0193 6.90367 11.758 6.90367 11.758L8.54267 11.778C8.54267 11.778 8.77433 11.79 9.09267 11.5617C9.411 11.3333 9.69533 10.679 9.21933 10.679C8.74333 10.679 8.236 10.5157 8.236 10.5157L6.20533 10.058C6.20533 10.058 5.50733 9.92733 5.222 10.058C4.98667 10.1657 4.006 10.517 3.66667 10.638V10ZM2.95933 3.22333C2.95933 3.22333 6.40433 4.14733 7.04833 4.88367C7.546 5.45267 7.00967 6.63767 6.73967 7.14767C6.38579 6.59196 6.00373 6.0547 5.595 5.538C5.56788 5.50364 5.53426 5.47495 5.49606 5.45358C5.45785 5.43221 5.41582 5.41858 5.37234 5.41346C5.32887 5.40833 5.28481 5.41182 5.24269 5.42373C5.20056 5.43563 5.1612 5.45572 5.12683 5.48283C5.09247 5.50995 5.06379 5.54357 5.04242 5.58178C5.02105 5.61998 5.00741 5.66202 5.00229 5.70549C4.99717 5.74896 5.00066 5.79302 5.01256 5.83515C5.02446 5.87727 5.04455 5.91664 5.07167 5.951C5.46893 6.45325 5.84009 6.97561 6.18367 7.516C5.561 7.68467 4.427 7.917 4.06033 7.49733C3.545 6.908 2.95933 3.223 2.95933 3.223" fill="url(#paint1_linear_2938_2685)"/>
<defs>
<linearGradient id="paint0_linear_2938_2685" x1="8.11647" y1="6.8335" x2="8.11647" y2="9.3334" gradientUnits="userSpaceOnUse">
<stop stop-color="#0057FF"/>
<stop offset="1" stop-color="#6879FF"/>
</linearGradient>
<linearGradient id="paint1_linear_2938_2685" x1="8.0175" y1="2" x2="8.0175" y2="14" gradientUnits="userSpaceOnUse">
<stop stop-color="#0057FF"/>
<stop offset="1" stop-color="#6879FF"/>
</linearGradient>
</defs>
</svg>
