<svg width="13" height="14" viewBox="0 0 13 14" fill="none" xmlns="http://www.w3.org/2000/svg">
<path d="M2.88571 4.36457L2.7351 4.71108C2.71156 4.76751 2.67186 4.81571 2.62098 4.84961C2.5701 4.88351 2.51033 4.90161 2.44919 4.90161C2.38805 4.90161 2.32828 4.88351 2.27741 4.84961C2.22653 4.81571 2.18682 4.76751 2.16329 4.71108L2.01268 4.36457C1.74788 3.75156 1.26294 3.26007 0.653551 2.98707L0.188876 2.77953C0.132502 2.7536 0.084746 2.71204 0.0512695 2.6598C0.017793 2.60755 0 2.5468 0 2.48474C0 2.42269 0.017793 2.36194 0.0512695 2.30969C0.084746 2.25745 0.132502 2.21589 0.188876 2.18996L0.627838 1.99466C1.25255 1.71389 1.74579 1.20421 2.00595 0.570639L2.16145 0.196572C2.1842 0.138628 2.22388 0.0888816 2.27531 0.0538179C2.32675 0.0187542 2.38755 0 2.4498 0C2.51205 0 2.57286 0.0187542 2.6243 0.0538179C2.67573 0.0888816 2.71541 0.138628 2.73816 0.196572L2.89305 0.570027C3.15293 1.20372 3.64595 1.71361 4.27055 1.99466L4.71012 2.19057C4.76632 2.21658 4.81391 2.25813 4.84726 2.31031C4.88061 2.36249 4.89833 2.42312 4.89833 2.48505C4.89833 2.54698 4.88061 2.60761 4.84726 2.65979C4.81391 2.71198 4.76632 2.75352 4.71012 2.77953L4.24483 2.98646C3.63556 3.25973 3.15084 3.75144 2.88632 4.36457M1.87615 13.2326C2.50429 9.44232 3.86464 1.22327 12.8569 1.22327C11.9411 3.05993 11.3264 3.97826 10.7142 4.59048L10.1019 5.2027L11.0203 5.81492C10.4081 7.65158 8.57139 9.79435 6.12251 10.1005C4.4887 10.3045 3.46793 11.4269 3.06019 13.4677H1.83697L1.87615 13.2326Z" fill="black"/>
<path d="M2.88571 4.36457L2.7351 4.71108C2.71156 4.76751 2.67186 4.81571 2.62098 4.84961C2.5701 4.88351 2.51033 4.90161 2.44919 4.90161C2.38805 4.90161 2.32828 4.88351 2.27741 4.84961C2.22653 4.81571 2.18682 4.76751 2.16329 4.71108L2.01268 4.36457C1.74788 3.75156 1.26294 3.26007 0.653551 2.98707L0.188876 2.77953C0.132502 2.7536 0.084746 2.71204 0.0512695 2.6598C0.017793 2.60755 0 2.5468 0 2.48474C0 2.42269 0.017793 2.36194 0.0512695 2.30969C0.084746 2.25745 0.132502 2.21589 0.188876 2.18996L0.627838 1.99466C1.25255 1.71389 1.74579 1.20421 2.00595 0.570639L2.16145 0.196572C2.1842 0.138628 2.22388 0.0888816 2.27531 0.0538179C2.32675 0.0187542 2.38755 0 2.4498 0C2.51205 0 2.57286 0.0187542 2.6243 0.0538179C2.67573 0.0888816 2.71541 0.138628 2.73816 0.196572L2.89305 0.570027C3.15293 1.20372 3.64595 1.71361 4.27055 1.99466L4.71012 2.19057C4.76632 2.21658 4.81391 2.25813 4.84726 2.31031C4.88061 2.36249 4.89833 2.42312 4.89833 2.48505C4.89833 2.54698 4.88061 2.60761 4.84726 2.65979C4.81391 2.71198 4.76632 2.75352 4.71012 2.77953L4.24483 2.98646C3.63556 3.25973 3.15084 3.75144 2.88632 4.36457M1.87615 13.2326C2.50429 9.44232 3.86464 1.22327 12.8569 1.22327C11.9411 3.05993 11.3264 3.97826 10.7142 4.59048L10.1019 5.2027L11.0203 5.81492C10.4081 7.65158 8.57139 9.79435 6.12251 10.1005C4.4887 10.3045 3.46793 11.4269 3.06019 13.4677H1.83697L1.87615 13.2326Z" fill="url(#paint0_linear_2938_2689)"/>
<defs>
<linearGradient id="paint0_linear_2938_2689" x1="6.42847" y1="0" x2="6.42847" y2="13.4677" gradientUnits="userSpaceOnUse">
<stop stop-color="#0057FF"/>
<stop offset="1" stop-color="#6879FF"/>
</linearGradient>
</defs>
</svg>
